<svg width="52" height="66" viewBox="0 0 52 66" fill="none" xmlns="http://www.w3.org/2000/svg">
<path d="M28.6367 34.0156C27.7799 34.8906 26.9141 35.1458 26.0391 34.7812C25.1823 34.3984 24.5716 33.6328 24.207 32.4844C23.6602 30.7161 23.2409 28.9023 22.9492 27.043C22.6576 25.1654 22.4844 23.1784 22.4297 21.082C22.375 18.9857 22.4206 16.7344 22.5664 14.3281L21.0352 12.9336C20.1966 12.1862 19.6406 11.3385 19.3672 10.3906C19.0938 9.44271 19.0938 8.48568 19.3672 7.51953C19.6406 6.55339 20.1693 5.66016 20.9531 4.83984C22.1927 3.63672 23.5599 3.04427 25.0547 3.0625C26.5495 3.0625 27.8802 3.68229 29.0469 4.92188L30.4961 6.45312C32.9388 6.30729 35.2083 6.27083 37.3047 6.34375C39.401 6.39844 41.3789 6.57161 43.2383 6.86328C45.0977 7.15495 46.8932 7.58333 48.625 8.14844C49.3724 8.38542 49.9557 8.74089 50.375 9.21484C50.8125 9.6888 51.0221 10.2174 51.0039 10.8008C51.0039 11.3841 50.7305 11.9401 50.1836 12.4688L28.6367 34.0156ZM22.2109 8.99609L17.3164 4.10156C16.9154 3.70052 16.7148 3.21745 16.7148 2.65234C16.7331 2.08724 16.9336 1.61328 17.3164 1.23047C17.7174 0.829427 18.1914 0.628906 18.7383 0.628906C19.3034 0.610677 19.7956 0.811198 20.2148 1.23047L25.1094 6.07031L22.2109 8.99609ZM40.9961 32.293C40.1211 32.293 39.2734 32.138 38.4531 31.8281C37.6328 31.5182 36.8854 31.0625 36.2109 30.4609L46.5195 20.1523C47.7591 21.5013 48.3789 23.0964 48.3789 24.9375C48.3789 26.2682 48.0417 27.4896 47.3672 28.6016C46.7109 29.7135 45.8177 30.6068 44.6875 31.2812C43.5755 31.9557 42.3451 32.293 40.9961 32.293ZM5.64062 37.625L2.66016 34.4258L23.3867 15.3672L26.3945 18.5391L5.64062 37.625ZM4.73828 39.7305C3.53516 39.7305 2.52344 39.3203 1.70312 38.5C0.882812 37.6797 0.472656 36.668 0.472656 35.4648C0.472656 34.2799 0.882812 33.2773 1.70312 32.457C2.52344 31.6185 3.53516 31.1992 4.73828 31.1992C5.92318 31.1992 6.92578 31.6185 7.74609 32.457C8.58464 33.2773 9.00391 34.2799 9.00391 35.4648C9.00391 36.668 8.58464 37.6797 7.74609 38.5C6.92578 39.3203 5.92318 39.7305 4.73828 39.7305ZM15.8398 49.4375L2.27734 35.9023L5.36719 32.8125L18.957 46.3477L15.8398 49.4375ZM16.6602 52.2812C15.457 52.2812 14.4453 51.8711 13.625 51.0508C12.8047 50.2305 12.3945 49.2188 12.3945 48.0156C12.3945 46.8307 12.8047 45.8281 13.625 45.0078C14.4453 44.1693 15.457 43.75 16.6602 43.75C17.8451 43.75 18.8477 44.1693 19.668 45.0078C20.5065 45.8281 20.9258 46.8307 20.9258 48.0156C20.9258 49.2188 20.5065 50.2305 19.668 51.0508C18.8477 51.8711 17.8451 52.2812 16.6602 52.2812ZM14.4453 61.332V48.125H18.8477V61.332H14.4453ZM3.61719 65.1875C3.10677 65.1875 2.69661 65.0234 2.38672 64.6953C2.07682 64.3672 1.92188 63.9297 1.92188 63.3828C1.92188 62.362 2.33203 61.5234 3.15234 60.8672C3.97266 60.2109 5.07552 59.8828 6.46094 59.8828H29.8672C31.2526 59.8828 32.3555 60.2109 33.1758 60.8672C33.9961 61.5234 34.4062 62.362 34.4062 63.3828C34.4062 63.9297 34.2513 64.3672 33.9414 64.6953C33.6315 65.0234 33.2214 65.1875 32.7109 65.1875H3.61719Z" fill="white"/>
</svg>
